# Blender v2.78 (sub 0) OBJ File: ''
# www.blender.org
mtllib grassmodel.mtl
o 3td_SwordGrass_01
v -0.333868 -0.010057 -0.370700
v 0.336547 -0.010057 0.371286
v -0.333602 0.989943 -0.370940
v 0.336813 0.989943 0.371046
vt 0.0000 0.0000
vt 1.0000 0.0000
vt 1.0000 1.0000
vt 0.0000 1.0000
vn -0.7420 0.0004 0.6704
v -0.334248 -0.007946 0.373295
v 0.335262 -0.007946 -0.369509
v -0.334711 0.992054 0.372877
v 0.334799 0.992054 -0.369926
vt 0.0000 0.0000
vt 1.0000 0.0000
vt 1.0000 1.0000
vt 0.0000 1.0000
vn 0.7428 0.0006 0.6695
v -0.466803 -0.007501 0.002416
v 0.533197 -0.007501 0.002416
v -0.466803 0.992487 0.007450
v 0.533197 0.992487 0.007450
vt 0.0000 0.0000
vt 1.0000 0.0000
vt 1.0000 1.0000
vt 0.0000 1.0000
vn 0.0000 -0.0050 1.0000
usemtl mat01
f 1/1/1 2/2/1 4/3/1 3/4/1
f 9/9/3 10/10/3 12/11/3 11/12/3
f 5/5/2 6/6/2 8/7/2 7/8/2

