# Blender v2.78 (sub 0) OBJ File: ''
# www.blender.org
mtllib billboardmodel.mtl
o billboard_plant
v 0.0000 1.0000 -0.5
v 0.0000 1.0000 0.5
v -0.000 0.000 -0.500
v -0.000 -0.000 0.5
vt 0.0000 0.0000
vt 1.0000 0.0000
vt 1.0000 1.0000
vt 0.0000 1.0000
vn 1.0000 0.0000 0.0000
v -0.500000 1.000000 0.000
v 0.500000 1.000000 0.000
v -0.500000 0.000000 -0.000
v 0.500000 0.000000 -0.000
vt 0.0000 0.0000
vt 1.0000 0.0000
vt 1.0000 1.0000
vt 0.0000 1.0000
vn 0.0000 0.0000 -1.0000
usemtl mat01
f 1/1/1 2/2/1 4/3/1 3/4/1
f 5/5/2 6/6/2 8/7/2 7/8/2
